<svg version="1.1" xmlns="http://www.w3.org/2000/svg" style="display: block;" viewBox="0 0 3824 256" width="3824" height="256" preserveAspectRatio="none">
<path transform="translate(0,0)" fill="rgb(41,47,47)" d="M 1585.34 167.966 C 1573.24 168.399 1561.7 172.338 1549.78 174.019 C 1531.57 176.587 1511.57 177.094 1493.19 177.263 C 1473.18 177.447 1451.59 176.275 1431.7 173.951 C 1392.39 169.361 1353.68 160.73 1315.23 151.594 C 1294.58 146.687 1272.85 142.295 1253.32 133.887 C 1244.22 129.969 1236.28 124.862 1229.01 118.092 C 1215.25 105.273 1206.36 88.7036 1205.69 69.7427 C 1205.12 53.4125 1209.85 38.1376 1221.11 26.0421 C 1236.21 9.83488 1263.09 2.64995 1284.56 1.92576 C 1367.51 -0.871192 1529.7 102.029 1606.23 142.378 C 1615.81 138.163 1624.89 135.143 1634.59 130.984 C 1651.01 123.941 1665.21 115.581 1680.7 106.532 C 1734.95 74.8456 1809.47 2.48413 1877.11 27.2877 C 1894.81 33.7751 1906.77 46.8674 1914.96 63.1964 C 1915.26 62.963 1915.53 62.71 1915.8 62.4512 C 1919.02 59.4243 1920.07 52.9065 1923.15 49.2014 C 1939.08 30.0801 1961.11 21.8758 1985.53 22.43 C 2040.53 23.6777 2095.52 71.7956 2140.27 100.378 C 2161.59 113.993 2183.21 125.856 2206.7 135.347 C 2211.41 137.251 2220.78 142.214 2225.84 141.155 C 2235.34 139.166 2269.98 117.641 2280.65 111.673 C 2342.34 77.1656 2451.66 14.2437 2520.4 3.35308 C 2546.55 -0.78933 2574.21 3.1733 2597.27 16.4617 C 2601.51 18.9064 2606.23 21.4695 2609.62 25.0327 C 2617.62 33.4492 2619.79 44.3596 2623.15 54.9934 C 2624.38 58.8738 2626.09 60.4993 2625.96 64.942 C 2625.39 84.7837 2615.36 105.67 2600.91 119.149 C 2591.49 127.937 2578.23 133.83 2566.26 138.171 C 2542.43 146.81 2515.83 151.66 2491.02 156.928 C 2460.15 163.487 2430.01 170.292 2398.56 174.017 C 2378.88 176.349 2354.34 177.934 2334.69 177.192 C 2317.33 176.535 2299.17 176.408 2281.97 174.12 C 2271.65 172.747 2261.13 168.918 2250.84 168.432 L 2251.72 173.054 C 2269.27 175.328 2288.95 181.207 2306.26 185.719 C 2309.71 186.617 2312.98 188.427 2316.44 189.133 C 2320.53 189.966 2324.8 189.652 2328.88 190.437 C 2351.96 194.88 2374.51 199.756 2397.96 202.401 C 2456.02 208.905 2514.79 202.238 2569.91 182.898 C 2611.59 167.861 2649.17 141.563 2693.93 136.041 C 2719.99 132.827 2750.21 133.407 2771.85 150.313 C 2783.66 159.542 2792.41 173.358 2794.23 188.369 C 2795.61 198.961 2792.67 209.665 2786.06 218.058 C 2778.42 227.745 2766.46 233.857 2754.27 235.279 C 2743.71 236.511 2731.97 233.594 2723.65 226.945 C 2717.15 221.758 2712.55 214.535 2711.64 206.178 C 2711.08 201.046 2711.99 195.842 2715.32 191.758 C 2719.39 186.776 2727.57 183.57 2733.81 182.979 C 2740.55 182.342 2745.78 185.396 2750.81 189.585 C 2752.9 191.324 2753.61 192.348 2753.85 195.03 L 2752.6 196.343 C 2752.28 196.322 2751.97 196.274 2751.65 196.219 C 2748.81 195.727 2745 191.691 2742.47 190.041 C 2739.94 188.382 2734.42 188.502 2731.48 189.143 C 2727.5 189.978 2724.03 192.381 2721.84 195.809 C 2719.4 199.62 2718.76 204.336 2719.73 208.726 C 2720.79 213.673 2723.77 217.995 2728.02 220.741 C 2735.25 225.35 2750.25 226.205 2758.39 224.37 C 2770.06 221.738 2776.24 214.263 2782.32 204.679 C 2782.66 201.288 2782.96 197.8 2782.98 194.389 C 2783.02 183.228 2775.78 170.05 2767.97 162.286 C 2752.07 146.494 2707.04 146.394 2687.04 150.801 C 2684.1 151.447 2681.84 153.202 2679.01 153.988 C 2669.93 156.507 2660.54 157.989 2651.76 161.57 C 2645.53 164.112 2639.35 168.11 2633.31 171.231 C 2511.08 234.424 2414.34 229.025 2283.7 196.619 C 2266.46 192.341 2204.52 174.322 2190.53 174.287 C 2179.65 174.26 2157.36 187.162 2145.86 191.357 C 2119.29 201.039 2079.11 212.566 2051 212.595 C 2038.94 212.607 2024.29 210.232 2015.47 201.38 C 2009.42 195.298 2006.9 186.493 2006.92 178.078 C 2006.95 170.464 2009.61 163.649 2015.05 158.269 C 2042.34 131.258 2118.8 144.986 2153.39 150.964 C 2164.81 152.939 2178.26 157.011 2189.77 156.972 C 2193.44 156.96 2196.89 156.52 2199.5 153.883 C 2198.84 152.29 2171.08 138.694 2167.97 136.917 C 2122.24 110.73 2081.88 72.6706 2035.82 48.6406 C 2012.71 36.5821 1984.22 27.8874 1958.27 36.1179 C 1945.33 40.2214 1932.16 49.8196 1925.87 61.9443 C 1920.13 73.0871 1919.09 86.0648 1922.97 97.983 C 1926.69 110.079 1935.13 120.164 1946.39 125.952 C 1959.2 132.547 1980.3 132.826 1992.79 124.887 C 1997.56 121.849 2002.15 116.65 2007.54 114.931 L 2008.13 116.229 C 2005.78 122.173 2001.18 126.325 1995.6 129.254 C 1982.11 136.328 1964.45 138.376 1949.87 133.766 C 1930.05 127.502 1925.13 118.006 1916.13 100.656 L 1915.11 100.578 C 1914.21 100.509 1908.88 111.726 1907.62 113.72 C 1902.09 122.468 1893.45 129.259 1883.79 132.906 C 1873.99 136.605 1857.78 137.747 1847.54 134.81 C 1843.74 133.72 1838.58 130.821 1834.88 129.096 C 1830.71 127.148 1823.07 120.398 1821.44 116.047 L 1822.39 114.786 C 1823.01 114.79 1824.52 114.608 1825.04 114.805 C 1826.02 115.179 1828.46 118.261 1829.4 119.114 C 1835.06 124.16 1841.89 127.709 1849.27 129.437 C 1863.75 132.888 1877.97 129.766 1890.49 122.03 C 1899.65 116.368 1905.29 106.448 1907.72 96.1738 C 1910.61 83.9264 1909.49 69.5655 1902.77 58.7276 C 1895.46 46.9351 1881.5 37.9879 1868.06 34.9057 C 1808.31 21.2026 1742.35 84.8255 1695.8 115.873 C 1683.24 124.251 1669.92 133.47 1656.74 140.763 C 1648.58 145.279 1639.64 148.174 1631.72 153.168 L 1631.73 154.49 C 1635.04 156.373 1639.75 157.229 1644.66 156.582 C 1680.32 151.88 1830.57 114.481 1823.04 184.92 C 1810.11 237.364 1718.06 200.483 1684.34 191.254 C 1669.2 187.04 1649 171.273 1633.51 174.986 C 1537.32 198.037 1439.1 230.155 1339.02 217.074 C 1301.21 210.785 1257.46 203.818 1222.64 184.067 C 1177.01 158.175 1073 114.885 1047.74 188.704 C 1038.75 214.957 1079.62 235.61 1101.36 220.812 C 1116.51 210.5 1116.33 193.692 1097.16 189.16 C 1087.97 187.49 1086.25 191.608 1079.45 196.428 L 1077.51 196.033 L 1077.07 193.975 C 1079.16 185.579 1092.38 181.498 1100.18 183.111 C 1109.22 184.978 1113.99 191.087 1118.88 198.311 C 1120.18 217.249 1112.73 225.513 1095.27 232.902 C 1080.25 239.261 1070.74 234.549 1056.58 228.663 C 1049.02 225.06 1041.13 216.598 1038.8 208.593 C 1029.59 176.916 1049.38 149.177 1079.2 139.554 C 1093.03 135.093 1100.64 135.152 1114.61 134.85 C 1153.22 134.017 1187.34 148.699 1220.72 166.367 C 1244.93 178.755 1277.8 188.697 1304.11 196.261 C 1308.12 197.412 1318.98 197.534 1323.56 198.577 C 1328.27 199.649 1329.72 201.148 1335.02 201.732 C 1399.75 208.855 1462.74 201.232 1525.63 185.6 C 1542.44 181.421 1572.11 175.394 1586.67 170.313 L 1585.34 167.966 z"/>
<path transform="translate(0,0)" fill="rgb(41,47,47)" d="M 3661.79 188.761 C 3664.46 188.054 3630.12 187.108 3629.58 187.109 C 3582.28 187.147 3534.98 187.147 3487.68 187.149 L 2970.6 187.131 C 2920.23 187.125 2869.34 187.921 2819.14 186.427 C 2813.7 184.879 2810.97 175.054 2814.24 171.552 C 2820.13 165.244 2838.09 167.501 2847.83 167.512 L 3393.46 167.61 L 3568.26 167.632 L 3623.91 167.627 C 3633.84 167.625 3644.03 167.622 3653.96 167.356 C 3655.92 167.304 3662.54 164.153 3664.7 163.166 L 3665.56 166.239 C 3673.68 170.156 3696.91 163.411 3702.6 173.597 C 3703.53 179.61 3700.34 182.797 3696.53 186.939 C 3689.96 187.143 3665.58 186.224 3661.79 188.761 z"/>
<path transform="translate(0,0)" fill="rgb(41,47,47)" d="M 165.167 165.458 C 176.263 170.035 282.261 167.619 303.94 167.6 L 756.846 167.588 L 991.419 167.375 C 1005.67 167.224 1025.19 173.487 1005.88 187.143 L 418.643 187.161 L 228.451 187.17 C 210.076 187.177 191.564 187.028 173.188 187.45 C 169.982 187.524 166.549 188.979 163.748 188.815 C 161.384 186.185 134.521 187.115 129.722 187.149 C 129.239 186.775 128.76 186.395 128.286 186.01 C 124.597 183.006 122.059 180.402 121.562 175.517 C 124.788 162.246 156.698 171.21 165.167 165.458 z"/>
<path transform="translate(0,0)" fill="rgb(25,25,25)" d="M 2.10493 176.672 C 19.8797 165.073 52.9243 140.35 68.9983 130.583 C 70.8428 129.463 156.468 161.633 165.167 165.458 C 156.698 171.21 124.788 162.246 121.562 175.517 C 122.059 180.402 124.597 183.006 128.286 186.01 C 128.76 186.395 129.239 186.775 129.722 187.149 C 134.521 187.115 161.384 186.185 163.748 188.815 C 137.725 198.26 94.9946 216.982 69.7114 224.033 C 62.8909 220.266 46.9928 208.726 39.9067 203.666 C 29.6299 196.327 11.0249 184.595 2.10493 176.672 z"/>
<path transform="translate(0,0)" fill="rgb(25,25,25)" d="M 3755.79 129.394 C 3776.49 145.667 3801.81 160.611 3822.88 176.842 C 3808.18 190.738 3771.54 210.395 3756.8 224.253 C 3744.29 221.246 3723.97 212.613 3711.29 207.818 C 3695.96 202.023 3676.55 195.393 3661.79 188.761 C 3665.58 186.224 3689.96 187.143 3696.53 186.939 C 3700.34 182.797 3703.53 179.61 3702.6 173.597 C 3696.91 163.411 3673.68 170.156 3665.56 166.239 L 3664.7 163.166 C 3675.99 160.059 3689.87 154.312 3701.09 150.085 C 3719.36 143.281 3737.6 136.384 3755.79 129.394 z"/>
<path transform="translate(0,0)" fill="rgb(25,25,25)" d="M 1914.41 135.68 C 1917.27 137.385 1919.96 151.699 1921.86 155.426 C 1925.25 162.102 1933.88 172.844 1939.82 177.514 C 1952.07 187.148 1961.03 185.331 1970.62 190.648 C 1967.49 194.612 1944.47 195.481 1929.63 215.013 C 1922.56 224.31 1920.42 234.524 1915.04 244.454 L 1914.77 245.664 C 1913.94 242.008 1913.11 238.295 1911.85 234.761 C 1905.65 217.304 1893.23 202.916 1875.68 196.253 C 1870.35 194.231 1864.54 193.676 1859.38 191.224 C 1860.01 189.574 1864.56 189.083 1866.32 188.78 C 1876.07 187.105 1880.4 183.096 1888.42 177.922 C 1890.7 176.456 1893.61 175.295 1895.68 173.666 C 1905.01 166.329 1913.08 147.122 1914.41 135.68 z"/>
</svg>