<?xml version="1.0" encoding="UTF-8"?>
<svg xmlns="http://www.w3.org/2000/svg" width="3259.39" height="1215.38" viewBox="61.949219 195.867188 3259.386719 1215.375" preserveAspectRatio="none">
<path fill-rule="nonzero" fill="rgb(19.91272%, 18.684387%, 18.864441%)" fill-opacity="1" d="M 3282.316406 965.816406 C 3275.148438 1043.066406 3228.222656 1117.859375 3157.210938 1149.089844 C 3086.199219 1180.332031 2993.511719 1160.6875 2948.363281 1097.59375 C 2903.207031 1034.507812 2919.300781 933.398438 2986.316406 894.324219 C 3015.136719 877.519531 3053.566406 873.292969 3081.121094 892.089844 C 3108.671875 910.882812 3116.832031 956.144531 3091.828125 978.226562 C 3078.199219 990.265625 3057.554688 994.328125 3047.96875 1009.777344 C 3039.152344 1024 3043.679688 1043.777344 3055.347656 1055.792969 C 3066.992188 1067.800781 3084.140625 1073.070312 3100.84375 1074.25 C 3188.09375 1080.417969 3255.414062 975.375 3228.933594 892.007812 C 3202.449219 808.644531 3107.691406 760.105469 3020.484375 766.832031 C 2933.277344 773.554688 2855.007812 825.171875 2794.59375 888.417969 C 2734.171875 951.664062 2688.050781 1026.890625 2635.796875 1097.042969 C 2583.550781 1167.183594 2522.664062 1234.289062 2443.675781 1271.867188 C 2380.753906 1301.820312 2308.28125 1310.496094 2239.808594 1297.949219 C 2367.074219 1261.878906 2483.835938 1188.859375 2571.363281 1089.574219 C 2638.535156 1013.375 2688.171875 923.292969 2752.914062 845.03125 C 2817.667969 766.769531 2904.015625 698.023438 3005.148438 688.644531 C 3079.378906 681.753906 3156.101562 709.449219 3208.796875 762.160156 C 3261.511719 814.871094 3289.207031 891.59375 3282.316406 965.816406 "/>
<path fill-rule="nonzero" fill="rgb(19.91272%, 18.684387%, 18.864441%)" fill-opacity="1" d="M 2609.800781 884.984375 C 2604.042969 976.398438 2549.6875 1059.242188 2480.457031 1119.226562 C 2418.902344 1172.535156 2342.941406 1218.050781 2267.871094 1243.894531 C 2412.144531 1167.585938 2518.167969 1019.0625 2537.339844 856.371094 C 2541.03125 825.039062 2541.601562 792.367188 2530.144531 762.980469 C 2518.675781 733.59375 2492.921875 708.097656 2461.570312 704.71875 C 2430.210938 701.339844 2396.359375 726.253906 2396.835938 757.789062 C 2397.335938 789.335938 2440.828125 812.613281 2464.109375 791.320312 C 2466.109375 833.574219 2424.71875 871.105469 2382.492188 868.984375 C 2340.253906 866.867188 2304.023438 829.390625 2298.972656 787.398438 C 2293.933594 745.414062 2317.507812 702.589844 2353.417969 680.261719 C 2389.328125 657.921875 2435.46875 655.007812 2475.738281 667.921875 C 2562.964844 695.890625 2615.570312 793.566406 2609.800781 884.984375 "/>
<path fill-rule="nonzero" fill="rgb(19.91272%, 18.684387%, 18.864441%)" fill-opacity="1" d="M 2637.035156 880.859375 C 2654.109375 814.855469 2641.445312 737.898438 2605.265625 681.046875 C 2564.246094 616.609375 2491.082031 573.796875 2414.8125 569.589844 C 2397.046875 568.621094 2378.203125 569.351562 2362.796875 560.433594 C 2328.625 540.65625 2334.203125 487.640625 2357.449219 455.75 C 2408.355469 385.859375 2516.175781 373.070312 2590.816406 416.730469 C 2665.449219 460.378906 2706.746094 548.496094 2709.957031 634.894531 C 2712.964844 716.023438 2675.964844 807.257812 2637.035156 880.859375 "/>
<path fill-rule="nonzero" fill="rgb(19.91272%, 18.684387%, 18.864441%)" fill-opacity="1" d="M 3306.832031 644.578125 C 3299.714844 673.683594 3278.007812 703.203125 3248.046875 703.953125 C 3227.113281 704.480469 3208.816406 691.03125 3191.070312 679.894531 C 3120.699219 635.761719 3032.34375 621.335938 2951.59375 640.785156 C 2882.453125 657.445312 2819.648438 698.777344 2776.328125 755.105469 C 2800.761719 672.195312 2847.851562 596.042969 2911.265625 537.308594 C 2956.0625 495.808594 3009.957031 462.496094 3069.683594 449.789062 C 3129.40625 437.085938 3195.300781 446.761719 3244.167969 483.371094 C 3293.035156 520.003906 3321.335938 585.265625 3306.832031 644.578125 "/>
<path fill-rule="nonzero" fill="rgb(19.91272%, 18.684387%, 18.864441%)" fill-opacity="1" d="M 3241.667969 323.472656 C 3129.9375 284.453125 3000.570312 323.664062 2913.113281 403.394531 C 2833.613281 475.875 2785.378906 577.027344 2760.324219 682.097656 C 2765.542969 636.925781 2768.8125 590.472656 2766.070312 545.515625 C 2762.882812 492.96875 2749.117188 439.863281 2718.246094 397.222656 C 2687.371094 354.585938 2637.707031 323.761719 2585.058594 323.722656 C 2611.113281 273.238281 2671.136719 242.675781 2727.292969 251.292969 C 2783.4375 259.910156 2831.523438 307.066406 2841.242188 363.035156 C 2878.761719 286.054688 2949.914062 222.308594 3034.53125 209.082031 C 3119.148438 195.867188 3213.714844 242.523438 3241.667969 323.472656 "/>
<path fill-rule="nonzero" fill="rgb(19.91272%, 18.684387%, 18.864441%)" fill-opacity="1" d="M 2150.011719 1311.058594 C 2141.882812 1311.898438 2133.734375 1312.316406 2125.617188 1312.328125 C 2054.667969 1312.417969 1986.265625 1285.015625 1924.890625 1249.414062 C 1744.15625 1144.589844 1615.410156 971.9375 1475.585938 816.699219 C 1335.761719 661.449219 1166.328125 513.003906 959.214844 485.601562 C 729.855469 455.257812 489.015625 600.03125 408.226562 816.828125 C 375.957031 903.414062 368.578125 1004.035156 411.449219 1085.894531 C 454.316406 1167.753906 556.550781 1221.21875 643.21875 1189.167969 C 669.132812 1179.582031 693.515625 1161.785156 703.703125 1136.09375 C 713.878906 1110.410156 705.609375 1076.617188 681.027344 1064 C 656.445312 1051.382812 620.042969 1070.570312 621.8125 1098.152344 C 582.742188 1037.898438 629.128906 948.011719 698.8125 930.617188 C 768.484375 913.222656 843.253906 955.953125 880.027344 1017.632812 C 934.78125 1109.460938 912.988281 1236.804688 837.40625 1312.425781 C 761.828125 1388.039062 641.667969 1411.242188 539.726562 1379 C 437.789062 1346.75 355.550781 1263.949219 313.59375 1165.613281 C 271.632812 1067.269531 267.855469 955.082031 291.917969 850.910156 C 328.230469 693.75 428.261719 552.285156 564.328125 465.65625 C 700.402344 379.039062 870.90625 348.277344 1028.664062 381.898438 C 1286.886719 436.925781 1480.425781 645.800781 1649.871094 848.28125 C 1796.511719 1023.511719 1949.265625 1209.773438 2150.011719 1311.058594 "/>
<path fill-rule="nonzero" fill="rgb(19.91272%, 18.684387%, 18.864441%)" fill-opacity="1" d="M 733.519531 375.96875 C 694.488281 380.097656 655.402344 390.875 622.097656 404.164062 C 539.839844 436.984375 468.402344 492.699219 386.691406 526.859375 C 304.980469 561.011719 202.472656 569.441406 134.71875 512.414062 C 78.695312 465.265625 61.949219 377.46875 96.683594 313.007812 C 131.417969 248.542969 213.957031 214.253906 284.148438 235.117188 C 239.246094 227.296875 196.242188 271.257812 196.214844 316.835938 C 196.191406 362.402344 230.703125 403.042969 272.746094 420.648438 C 314.777344 438.253906 362.640625 436.273438 407.207031 426.738281 C 451.773438 417.210938 494.496094 400.535156 538.648438 389.246094 C 602.183594 372.992188 668.402344 368.933594 733.519531 375.96875 "/>
</svg>
